/usr/bin/start-video-rec.sh: line 93: kill: (520) - No such process
ffmpeg version 2.8.17-0ubuntu0.1 Copyright (c) 2000-2020 the FFmpeg developers
  built with gcc 5.4.0 (Ubuntu 5.4.0-6ubuntu1~16.04.12) 20160609
  configuration: --prefix=/usr --extra-version=0ubuntu0.1 --build-suffix=-ffmpeg --toolchain=hardened --libdir=/usr/lib/x86_64-linux-gnu --incdir=/usr/include/x86_64-linux-gnu --cc=cc --cxx=g++ --enable-gpl --enable-shared --disable-stripping --disable-decoder=libopenjpeg --disable-decoder=libschroedinger --enable-avresample --enable-avisynth --enable-gnutls --enable-ladspa --enable-libass --enable-libbluray --enable-libbs2b --enable-libcaca --enable-libcdio --enable-libflite --enable-libfontconfig --enable-libfreetype --enable-libfribidi --enable-libgme --enable-libgsm --enable-libmodplug --enable-libmp3lame --enable-libopenjpeg --enable-libopus --enable-libpulse --enable-librtmp --enable-libschroedinger --enable-libshine --enable-libsnappy --enable-libsoxr --enable-libspeex --enable-libssh --enable-libtheora --enable-libtwolame --enable-libvorbis --enable-libvpx --enable-libwavpack --enable-libwebp --enable-libx265 --enable-libxvid --enable-libzvbi --enable-openal --enable-opengl --enable-x11grab --enable-libdc1394 --enable-libiec61883 --enable-libzmq --enable-frei0r --enable-libx264 --enable-libopencv
  libavutil      54. 31.100 / 54. 31.100
  libavcodec     56. 60.100 / 56. 60.100
  libavformat    56. 40.101 / 56. 40.101
  libavdevice    56.  4.100 / 56.  4.100
  libavfilter     5. 40.101 /  5. 40.101
  libavresample   2.  1.  0 /  2.  1.  0
  libswscale      3.  1.101 /  3.  1.101
  libswresample   1.  2.101 /  1.  2.101
  libpostproc    53.  3.100 / 53.  3.100
Input #0, matroska,webm, from '/home/seluser/videos/vid_chrome_or_firefox_40000.mkv':
  Metadata:
    ENCODER         : Lavf56.40.101
  Duration: 00:00:50.70, start: 0.000000, bitrate: 202 kb/s
    Stream #0:0: Video: h264 (Constrained Baseline), yuv420p, 1366x768, SAR 1:1 DAR 683:384, 10 fps, 10 tbr, 1k tbn, 20 tbc (default)
    Metadata:
      ENCODER         : Lavc56.60.100 libx264
      DURATION        : 00:00:50.700000000
[libx264 @ 0x173e740] using SAR=1/1
[libx264 @ 0x173e740] using cpu capabilities: MMX2 SSE2Fast SSSE3 SSE4.2 AVX FMA3 AVX2 LZCNT BMI2
[libx264 @ 0x173e740] profile Constrained Baseline, level 3.2
[libx264 @ 0x173e740] 264 - core 148 r2643 5c65704 - H.264/MPEG-4 AVC codec - Copyleft 2003-2015 - http://www.videolan.org/x264.html - options: cabac=0 ref=1 deblock=0:0:0 analyse=0:0 me=dia subme=0 psy=1 psy_rd=1.00:0.00 mixed_ref=0 me_range=16 chroma_me=1 trellis=0 8x8dct=0 cqm=0 deadzone=21,11 fast_pskip=1 chroma_qp_offset=0 threads=3 lookahead_threads=1 sliced_threads=0 nr=0 decimate=1 interlaced=0 bluray_compat=0 constrained_intra=0 bframes=0 weightp=0 keyint=250 keyint_min=10 scenecut=0 intra_refresh=0 rc=crf mbtree=0 crf=23.0 qcomp=0.60 qpmin=0 qpmax=69 qpstep=4 ip_ratio=1.40 aq=0
Output #0, mp4, to '/home/seluser/videos/vid_chrome_or_firefox_40000.mp4':
  Metadata:
    encoder         : Lavf56.40.101
    Stream #0:0: Video: h264 (libx264) ([33][0][0][0] / 0x0021), yuv420p, 1366x768 [SAR 1:1 DAR 683:384], q=-1--1, 10 fps, 10240 tbn, 10 tbc (default)
    Metadata:
      DURATION        : 00:00:50.700000000
      encoder         : Lavc56.60.100 libx264
Stream mapping:
  Stream #0:0 -> #0:0 (h264 (native) -> h264 (libx264))
Press [q] to stop, [?] for help
frame=  131 fps=0.0 q=10.0 size=     249kB time=00:00:12.70 bitrate= 160.4kbits/s    
frame=  211 fps=209 q=9.0 size=     690kB time=00:00:20.70 bitrate= 272.9kbits/s    
frame=  290 fps=192 q=9.0 size=     871kB time=00:00:28.60 bitrate= 249.4kbits/s    
frame=  362 fps=180 q=9.0 size=     874kB time=00:00:35.80 bitrate= 199.9kbits/s    
frame=  466 fps=185 q=9.0 size=    1189kB time=00:00:46.20 bitrate= 210.9kbits/s    
frame=  507 fps=183 q=-1.0 Lsize=    1254kB time=00:00:50.70 bitrate= 202.5kbits/s    
video:1251kB audio:0kB subtitle:0kB other streams:0kB global headers:0kB muxing overhead: 0.224006%
[libx264 @ 0x173e740] frame I:3     Avg QP:11.33  size: 56198
[libx264 @ 0x173e740] frame P:504   Avg QP:10.15  size:  2206
[libx264 @ 0x173e740] mb I  I16..4: 100.0%  0.0%  0.0%
[libx264 @ 0x173e740] mb P  I16..4:  1.8%  0.0%  0.0%  P16..4:  2.2%  0.0%  0.0%  0.0%  0.0%    skip:96.0%
[libx264 @ 0x173e740] coded y,uvDC,uvAC intra: 13.4% 9.0% 8.1% inter: 0.9% 1.0% 0.6%
[libx264 @ 0x173e740] i16 v,h,dc,p: 74% 24%  1%  1%
[libx264 @ 0x173e740] i8c dc,h,v,p: 82% 15%  2%  1%
[libx264 @ 0x173e740] kb/s:202.00
